<svg xmlns="http://www.w3.org/2000/svg" width="190" height="190" viewBox="0 0 190 190">
  <g id="LinkedIn_300x300" data-name="LinkedIn 300x300" transform="translate(-149 -226)">
    <rect id="Rectangle_56" data-name="Rectangle 56" width="190" height="190" transform="translate(149 226)" fill="none"/>
    <g id="vallift-icon" transform="translate(162 236)">
      <path id="Path_584" data-name="Path 584" d="M-2196.98,858.106a65.841,65.841,0,0,1-26.088-5.337,66.849,66.849,0,0,1-21.3-14.556,67.754,67.754,0,0,1-14.363-21.592,68.32,68.32,0,0,1-5.268-26.44,68.319,68.319,0,0,1,5.268-26.438,67.75,67.75,0,0,1,14.363-21.591,66.825,66.825,0,0,1,21.3-14.557,65.849,65.849,0,0,1,26.088-5.337,66.212,66.212,0,0,1,46.61,19.12l-32.811,34.693-34.227-35.572,34.227,66.744,39.1-58.753a67.857,67.857,0,0,1,10.371,19.268,68.683,68.683,0,0,1,3.739,22.423,68.275,68.275,0,0,1-5.268,26.44,67.749,67.749,0,0,1-14.363,21.592,66.782,66.782,0,0,1-21.3,14.556A65.833,65.833,0,0,1-2196.98,858.106Zm52.9-109.616-.006,0h0a68,68,0,0,0-6.29-7.107L-2113.133,702Z" transform="translate(2264 -689.524)" fill="#f34538"/>
      <path id="Path_588" data-name="Path 588" d="M-2196.98,858.106a65.841,65.841,0,0,1-26.088-5.337,66.849,66.849,0,0,1-21.3-14.556,67.754,67.754,0,0,1-14.363-21.592,68.32,68.32,0,0,1-5.268-26.44,68.319,68.319,0,0,1,5.268-26.438,67.75,67.75,0,0,1,14.363-21.591,66.825,66.825,0,0,1,21.3-14.557,65.849,65.849,0,0,1,26.088-5.337,66.212,66.212,0,0,1,46.61,19.12l-32.811,34.693-34.227-35.572,34.227,66.744,39.1-58.753a67.857,67.857,0,0,1,10.371,19.268,68.683,68.683,0,0,1,3.739,22.423,68.275,68.275,0,0,1-5.268,26.44,67.749,67.749,0,0,1-14.363,21.592,66.782,66.782,0,0,1-21.3,14.556A65.833,65.833,0,0,1-2196.98,858.106Zm52.9-109.616-.006,0h0a68,68,0,0,0-6.29-7.107L-2113.133,702Z" transform="translate(2264 -689.524)" fill="#f34538"/>
      <circle id="i-innovation" cx="17.895" cy="17.895" r="17.895" transform="translate(129.166 0)" fill="#f34538"/>
    </g>
  </g>
</svg>
